<svg id="Layer_1" version="1.1" viewBox="0 0 50 50" xml:space="preserve" xmlns="http://www.w3.org/2000/svg" xmlns:xlink="http://www.w3.org/1999/xlink"><style>.st0{fill:none}.st3{fill:#6bb5fb}.st6{fill:#3955d1}.st7{fill:#4466fb}</style><pattern height="32.252" id="Unnamed_Pattern_12" patternUnits="userSpaceOnUse" viewBox="0 -32.252 32.252 32.252" width="32.252" x="-70" overflow="visible"><path class="st0" d="M0-32.252h32.252V0H0z"/><path fill="#b7c5fd" d="M0-32.252h32.252V0H0z"/></pattern><pattern height="32.252" id="Unnamed_Pattern_13" patternUnits="userSpaceOnUse" viewBox="0 -32.252 32.252 32.252" width="32.252" x="-70" overflow="visible"><path class="st0" d="M0-32.252h32.252V0H0z"/><path fill="#d9ddf6" d="M0-32.252h32.252V0H0z"/></pattern><pattern height="32.252" id="Unnamed_Pattern_2" patternUnits="userSpaceOnUse" viewBox="0 -32.252 32.252 32.252" width="32.252" x="-70" overflow="visible"><path class="st0" d="M0-32.252h32.252V0H0z"/><path class="st3" d="M0-32.252h32.252V0H0z"/></pattern><pattern id="SVGID_1_" patternTransform="translate(-6435.33 -6329.865) scale(.20089)" xlink:href="#Unnamed_Pattern_12"/><path d="M47.78 35.473c-.006 2.039-.725 3.475-1.886 4.15l-5.382 3.126c1.16-.675 1.882-2.11 1.888-4.15.01-3.858-2.537-8.506-5.808-10.867.01-4.106-2.876-9.108-6.448-11.169-1.428-.826-2.75-1.057-3.821-.773-1.627-4.267-4.725-8.301-8.285-10.356-2.65-1.529-5.05-1.672-6.784-.665l5.38-3.126c1.734-1.006 4.134-.866 6.784.665 3.56 2.055 6.658 6.089 8.285 10.356 1.072-.283 2.392-.054 3.823.771 3.571 2.063 6.458 7.063 6.446 11.17 3.27 2.362 5.818 7.01 5.808 10.868z" fill="url(#SVGID_1_)"/><pattern id="SVGID_2_" patternTransform="translate(-6435.33 -6329.865) scale(.20089)" xlink:href="#Unnamed_Pattern_12"/><path d="M13.872 7.153l-5.38 3.128c-1.64-.733-3.11-.72-4.215-.078L9.66 7.075c1.103-.64 2.574-.653 4.213.078z" fill="url(#SVGID_2_)"/><g><pattern id="SVGID_3_" patternTransform="translate(-6435.33 -6329.865) scale(.20089)" xlink:href="#Unnamed_Pattern_13"/><path d="M18.038 5.435c3.56 2.055 6.657 6.088 8.284 10.355 1.072-.283 2.394-.053 3.822.772 3.572 2.062 6.46 7.064 6.447 11.17 3.272 2.361 5.82 7.01 5.809 10.867-.012 4.105-2.916 5.763-6.49 3.7L9.253 26.908c-3.897-2.25-7.046-7.704-7.033-12.183.012-4.16 2.754-6.015 6.272-4.445.29-5.605 4.46-7.782 9.546-4.845z" fill="url(#SVGID_3_)"/></g><g><path class="st3" d="M20.843 44.626L6.19 36.166c-.192-.11-.365-.12-.485-.048l10.221-5.94c.12-.072.294-.063.486.048l14.651 8.46c.159.091.303.24.418.411l-10.221 5.94a1.325 1.325 0 00-.418-.411zM31.732 42.58c0 .21-.076.365-.197.432l-10.221 5.94c.12-.067.197-.22.197-.437l.01-2.711c0-.253-.103-.532-.26-.766l10.221-5.94c.157.234.26.513.26.766l-.01 2.715z"/><path class="st7" d="M6.19 36.166c-.378-.218-.683-.044-.684.39L5.5 39.27c-.002.43.301.959.679 1.176l14.651 8.46c.378.218.683.04.684-.39l.008-2.715c0-.434-.302-.959-.68-1.177L6.19 36.166z"/><g><pattern id="SVGID_4_" patternTransform="matrix(-.89115 0 0 .89115 -15094.82 -894.585)" xlink:href="#Unnamed_Pattern_2"/><path fill="url(#SVGID_4_)" d="M13.593 42.152l6.73 3.889v1.084l-6.73-3.895z"/></g><g><pattern id="SVGID_5_" patternTransform="matrix(-.89115 0 0 .89115 -15094.82 -894.798)" xlink:href="#Unnamed_Pattern_12"/><path d="M6.989 38.127c-.261-.15-.474-.03-.475.267 0 .116.032.241.085.36.085.188.226.36.386.452.159.092.3.083.385-.007.054-.057.086-.145.087-.261 0-.296-.21-.662-.468-.81m1.451.837c-.26-.15-.47-.027-.47.269-.001.116.03.24.083.36.084.187.224.358.384.45.158.092.3.083.385-.007.054-.057.086-.145.086-.261.001-.296-.21-.662-.468-.81m1.452.837c-.261-.15-.47-.027-.471.269 0 .116.03.24.084.36.084.187.224.358.384.45.158.092.299.083.385-.007.054-.056.086-.145.086-.261 0-.296-.21-.662-.468-.81" fill="url(#SVGID_5_)"/></g><g><path class="st6" d="M21.418 40.305l9.104-5.24v3.48l-8.616 4.965a.885.885 0 01-.887-.001L7.03 35.374l-.045-3.452 14.433 8.383z"/><path class="st3" d="M20.843 38.122L6.19 29.662c-.192-.11-.365-.12-.485-.048l10.221-5.94c.12-.072.294-.063.486.048l14.651 8.46c.159.091.303.24.418.412l-10.221 5.94a1.325 1.325 0 00-.418-.412zM31.732 36.075c0 .212-.076.366-.197.433l-10.221 5.94c.12-.067.197-.22.197-.437l.01-2.711c0-.252-.103-.532-.26-.766l10.221-5.94c.157.234.26.513.26.766l-.01 2.715z"/><path class="st7" d="M6.19 29.662c-.378-.218-.683-.044-.684.39L5.5 32.767c-.002.43.301.959.679 1.177l14.651 8.459c.378.218.683.04.684-.39l.008-2.715c0-.434-.302-.959-.68-1.177L6.19 29.662z"/><g><pattern id="SVGID_6_" patternTransform="matrix(-.89115 0 0 .89115 -15094.82 -901.088)" xlink:href="#Unnamed_Pattern_2"/><path fill="url(#SVGID_6_)" d="M13.593 35.648l6.73 3.889v1.084l-6.73-3.895z"/></g><g><pattern id="SVGID_7_" patternTransform="matrix(-.89115 0 0 .89115 -15094.82 -901.302)" xlink:href="#Unnamed_Pattern_12"/><path d="M6.989 31.623c-.261-.15-.474-.03-.475.267 0 .116.032.241.085.36.085.188.226.36.386.453.159.09.3.082.385-.008.054-.057.086-.145.087-.261 0-.296-.21-.662-.468-.81m1.451.837c-.26-.15-.47-.027-.47.269-.001.116.03.24.083.36.084.187.224.358.384.45.158.092.3.083.385-.007.054-.056.086-.145.086-.261.001-.296-.21-.662-.468-.81m1.452.837c-.261-.15-.47-.027-.471.269 0 .116.03.24.084.36.084.187.224.358.384.45.158.092.299.083.385-.007.054-.056.086-.145.086-.26 0-.297-.21-.663-.468-.812" fill="url(#SVGID_7_)"/></g></g><g><path class="st6" d="M21.418 33.801l9.104-5.24v3.48l-8.616 4.965a.885.885 0 01-.887-.001L7.03 28.87l-.045-3.452 14.433 8.383z"/><path class="st3" d="M20.843 31.618L6.19 23.158c-.192-.11-.365-.12-.485-.048l10.221-5.94c.12-.072.294-.063.486.048l14.651 8.46c.159.091.303.24.418.412l-10.221 5.94a1.325 1.325 0 00-.418-.412zM31.732 29.572c0 .211-.076.365-.197.432l-10.221 5.94c.12-.067.197-.22.197-.437l.01-2.711c0-.252-.103-.532-.26-.766l10.221-5.94c.157.234.26.513.26.766l-.01 2.716z"/><path class="st7" d="M6.19 23.158c-.378-.218-.683-.044-.684.39L5.5 26.263c-.002.43.301.959.679 1.177l14.651 8.459c.378.218.683.04.684-.39l.008-2.715c0-.434-.302-.959-.68-1.177L6.19 23.158z"/><g><pattern id="SVGID_8_" patternTransform="matrix(-.89115 0 0 .89115 -15094.82 -907.592)" xlink:href="#Unnamed_Pattern_2"/><path fill="url(#SVGID_8_)" d="M13.593 29.144l6.73 3.889v1.084l-6.73-3.895z"/></g><g><pattern id="SVGID_9_" patternTransform="matrix(-.89115 0 0 .89115 -15094.82 -907.806)" xlink:href="#Unnamed_Pattern_12"/><path d="M6.989 25.12c-.261-.151-.474-.03-.475.266 0 .116.032.241.085.36.085.188.226.36.386.453.159.09.3.082.385-.008.054-.056.086-.145.087-.261 0-.296-.21-.662-.468-.81m1.451.837c-.26-.15-.47-.027-.47.269-.001.116.03.24.083.36.084.187.224.358.384.45.158.092.3.083.385-.007.054-.056.086-.145.086-.26.001-.297-.21-.663-.468-.812m1.452.839c-.261-.151-.47-.028-.471.268 0 .116.03.241.084.36.084.187.224.358.384.45.158.092.299.083.385-.007.054-.056.086-.145.086-.26 0-.297-.21-.663-.468-.811" fill="url(#SVGID_9_)"/></g></g></g></svg>