<svg xmlns="http://www.w3.org/2000/svg" viewBox="0 0 512 512"><path fill="#fd982c" d="M446.149 451.689V210.406l-190.16-65.912-190.16 65.912v241.283L255.989 512z"/><path fill="#fa502e" d="M446.149 451.689V210.406l-190.16-65.912V512z"/><path fill="#fff2b4" d="M446.149 210.406l-190.16-65.912-190.16 65.912 190.16 66.91z"/><path fill="#ffdf8e" d="M446.149 210.406l-190.16-65.912v132.822z"/><g fill="#fabe3d"><path d="M65.829 210.406L0 288.301l193.739 70.405 62.25-81.39z"/><path d="M446.149 210.406L512 288.301l-193.739 70.405-62.272-81.39z"/></g><path fill="#fd982c" d="M446.149 210.406L512 288.301l-193.739 70.405-62.272-81.39z"/><path fill="#0050c3" d="M311.334 121.037V0H200.667v121.037h-39.792l95.116 128.113 95.134-128.113z"/><path fill="#0040a0" d="M311.334 121.037V0H256l-.009 249.15 95.134-128.113z"/></svg>