<svg height="472pt" viewBox="-16 0 472 472" width="472pt" xmlns="http://www.w3.org/2000/svg"><path d="m336 472h-192v-272h192zm0 0" fill="#45a7d1"/><path d="m435.257812 296.289062-38.296874-62.226562c-13.027344-21.167969-36.105469-34.0625-60.960938-34.0625h-40l-56 80-56-80h-40c-24.855469 0-47.933594 12.894531-60.960938 34.0625l-11.039062 17.9375v-60h-64v144c0 17.671875 14.328125 32 32 32h14.265625c11.03125 0 21.285156-5.683594 27.132813-15.039062l30.601562-48.960938 32-56v224h192v-104h72c17.671875 0 32-14.328125 32-32v-22.945312c0-5.917969-1.640625-11.722657-4.742188-16.765626zm-99.257812 7.710938v-56l32 56zm0 0" fill="#e0e0de"/><path d="m240 200h-56l32.664062 46.664062zm0 0" fill="#4db7e5"/><path d="m240 200h56l-32.664062 46.664062zm0 0" fill="#4db7e5"/><path d="m435.257812 296.289062-38.296874-62.226562c-4.71875-7.648438-10.835938-14.339844-18.03125-19.71875-8.503907 18.898438-19.164063 36.753906-31.761719 53.207031l20.832031 36.449219h-32v-22.695312c-53.945312 62.695312-131.105469 101.160156-192 123.535156v67.160156h192v-104h72c17.671875 0 32-14.328125 32-32v-22.945312c0-5.917969-1.640625-11.722657-4.742188-16.765626zm0 0" fill="#d6d6d4"/><path d="m168 56h144v72c0 39.765625-32.234375 72-72 72s-72-32.234375-72-72zm0 0" fill="#fec9a3"/><path d="m280 56v72c-.023438 33.582031-23.257812 62.6875-56 70.152344 21.359375 4.941406 43.808594-.148438 60.949219-13.8125 17.144531-13.667969 27.105469-34.414063 27.050781-56.339844v-72zm0 0" fill="#fec093"/><path d="m136 8h128c26.507812 0 48 21.492188 48 48h-144l-3.375-1.6875c-17.542969-8.769531-28.625-26.699219-28.625-46.3125zm0 0" fill="#95573a"/><path d="m264 8h-32c26.507812 0 48 21.492188 48 48h32c0-26.507812-21.492188-48-48-48zm0 0" fill="#8f4d2e"/><path d="m312 120h-56l-16-16-16 16h-56c-8.835938 0-16-7.164062-16-16v-32c0-8.835938 7.164062-16 16-16h144c8.835938 0 16 7.164062 16 16v32c0 8.835938-7.164062 16-16 16zm0 0" fill="#4db7e5"/><g fill="#c7c7c5"><path d="m64 320c-4.417969 0-8-3.582031-8-8v-120c0-4.417969 3.582031-8 8-8s8 3.582031 8 8v120c0 4.417969-3.582031 8-8 8zm0 0"/><path d="m232 272h16v200h-16zm0 0"/><path d="m144 288h56v16h-56zm0 0"/><path d="m144 400h56v16h-56zm0 0"/></g><path d="m230.113281 160h-6.113281v-16h6.113281c10.519531-.015625 20.894531-2.46875 30.3125-7.160156l7.148438 14.320312c-11.636719 5.796875-24.460938 8.824219-37.460938 8.839844zm0 0" fill="#f7a468"/><path d="m96 16h-16v-16h-16v16h-16v16h16v16h16v-16h16zm0 0" fill="#ffb531"/><path d="m24 48c-13.253906 0-24 10.746094-24 24s10.746094 24 24 24 24-10.746094 24-24-10.746094-24-24-24zm0 32c-4.417969 0-8-3.582031-8-8s3.582031-8 8-8 8 3.582031 8 8-3.582031 8-8 8zm0 0" fill="#ffb531"/><path d="m64 96h48v152c0 13.253906-10.746094 24-24 24s-24-10.746094-24-24zm0 0" fill="#4db7e5"/><path d="m64 248c0 13.253906 10.746094 24 24 24s24-10.746094 24-24v-24h-48zm0 0" fill="#ffb531"/><path d="m112 128h-72c-17.671875 0-32 14.328125-32 32v32h104zm0 0" fill="#fec9a3"/><path d="m312 56-60 60 4 4h56c8.835938 0 16-7.164062 16-16v-32c0-8.835938-7.164062-16-16-16zm0 0" fill="#48add9"/><path d="m192 80h16v16h-16zm0 0" fill="#2a71ad"/><path d="m272 80h16v16h-16zm0 0" fill="#2a71ad"/><path d="m272 344v-72h32v72l43.199219 57.601562c3.117187 4.152344 4.800781 9.207032 4.800781 14.398438 0 13.253906-10.746094 24-24 24h-80c-13.253906 0-24-10.746094-24-24 0-5.191406 1.683594-10.246094 4.800781-14.398438zm0 0" fill="#4db7e5"/><path d="m350.59375 408c2.636719 7.339844 1.527344 15.507812-2.96875 21.878906-4.5 6.371094-11.824219 10.148438-19.625 10.121094h-80c-7.800781.027344-15.125-3.75-19.625-10.121094-4.496094-6.371094-5.605469-14.539062-2.96875-21.878906zm0 0" fill="#ffb531"/><path d="m287.921875 408h62.671875c-.800781-2.292969-1.945312-4.449219-3.394531-6.398438l-24.3125-32.410156c-9.84375 14.460938-21.605469 27.515625-34.964844 38.808594zm0 0" fill="#48add9"/><path d="m351.617188 411.839844c-.238282-1.304688-.582032-2.589844-1.023438-3.839844h-62.671875c-14.542969 12.265625-30.660156 22.53125-47.921875 30.519531 2.5625.953125 5.269531 1.453125 8 1.480469h80c7.082031.019531 13.808594-3.09375 18.371094-8.511719s6.492187-12.578125 5.269531-19.550781zm0 0" fill="#ffa912"/><path d="m336 368h-72c-8.835938 0-16-7.164062-16-16v-16l-3.03125-3.03125c-3.183594-3.183594-4.96875-7.5-4.96875-12 .003906-9.371094 7.597656-16.964844 16.96875-16.96875h79.03125zm0 0" fill="#fec9a3"/><path d="m392 296h-56v16h56c4.417969 0 8-3.582031 8-8s-3.582031-8-8-8zm0 0" fill="#c7c7c5"/></svg>