<svg id="Capa_1" enable-background="new 0 0 512 512" height="512" viewBox="0 0 512 512" width="512" xmlns="http://www.w3.org/2000/svg"><g><g><path d="m19.66 77.489v198.171c0 130.527 105.813 236.34 236.34 236.34l30-251.574-30-260.426z" fill="#ffe477"/><path d="m256 0v512c130.527 0 236.34-105.813 236.34-236.34v-198.171z" fill="#ffb655"/></g><path d="m78.5 121.931v148.834c0 98.031 79.47 177.5 177.5 177.5l30-207.608-30-176.923c-.005.002-177.5 58.197-177.5 58.197z" fill="#fff5f5"/><path d="m256 63.734v384.531c98.031 0 177.5-79.47 177.5-177.5v-148.834z" fill="#e1ebf0"/><g><g><path d="m219.658 223.51h-30v-41.128c0-36.581 29.761-66.341 66.342-66.341l10 15.626-10 14.374c-20.039 0-36.342 16.303-36.342 36.341z" fill="#e1ebf0"/></g><g><path d="m322.342 223.51h-30v-41.128c0-20.039-16.303-36.341-36.342-36.341v-30c36.581 0 66.342 29.761 66.342 66.341z" fill="#b4d2d7"/></g><g><path d="m175.624 212.448v127.823h80.376l10-63.911-10-63.912z" fill="#ffe477"/><path d="m256 212.448h80.376v127.823h-80.376z" fill="#ffb655"/></g><g><path d="m240.066 260.426v31.867h15.934l10-15.933-10-15.934z" fill="#ffb655"/><path d="m256 260.426h15.934v31.867h-15.934z" fill="#ff7c48"/></g></g></g></svg>